<svg width="111" height="16" viewBox="0 0 111 16" fill="none" xmlns="http://www.w3.org/2000/svg">
<path d="M5.14062 9.71094C5.14062 9.52344 5.09375 9.35417 5 9.20312C4.90625 9.04688 4.72656 8.90625 4.46094 8.78125C4.20052 8.65625 3.8151 8.54167 3.30469 8.4375C2.85677 8.33854 2.44531 8.22135 2.07031 8.08594C1.70052 7.94531 1.38281 7.77604 1.11719 7.57812C0.851562 7.38021 0.645833 7.14583 0.5 6.875C0.354167 6.60417 0.28125 6.29167 0.28125 5.9375C0.28125 5.59375 0.356771 5.26823 0.507812 4.96094C0.658854 4.65365 0.875 4.38281 1.15625 4.14844C1.4375 3.91406 1.77865 3.72917 2.17969 3.59375C2.58594 3.45833 3.03906 3.39062 3.53906 3.39062C4.2474 3.39062 4.85417 3.51042 5.35938 3.75C5.86979 3.98438 6.26042 4.30469 6.53125 4.71094C6.80208 5.11198 6.9375 5.5651 6.9375 6.07031H5.05469C5.05469 5.84635 4.9974 5.63802 4.88281 5.44531C4.77344 5.2474 4.60677 5.08854 4.38281 4.96875C4.15885 4.84375 3.8776 4.78125 3.53906 4.78125C3.21615 4.78125 2.94792 4.83333 2.73438 4.9375C2.52604 5.03646 2.36979 5.16667 2.26562 5.32812C2.16667 5.48958 2.11719 5.66667 2.11719 5.85938C2.11719 6 2.14323 6.1276 2.19531 6.24219C2.2526 6.35156 2.34635 6.45312 2.47656 6.54688C2.60677 6.63542 2.78385 6.71875 3.00781 6.79688C3.23698 6.875 3.52344 6.95052 3.86719 7.02344C4.51302 7.15885 5.06771 7.33333 5.53125 7.54688C6 7.75521 6.35938 8.02604 6.60938 8.35938C6.85938 8.6875 6.98438 9.10417 6.98438 9.60938C6.98438 9.98438 6.90365 10.3281 6.74219 10.6406C6.58594 10.9479 6.35677 11.2161 6.05469 11.4453C5.7526 11.6693 5.39062 11.8438 4.96875 11.9688C4.55208 12.0938 4.08333 12.1562 3.5625 12.1562C2.79688 12.1562 2.14844 12.0208 1.61719 11.75C1.08594 11.474 0.682292 11.1224 0.40625 10.6953C0.135417 10.263 0 9.8151 0 9.35156H1.82031C1.84115 9.70052 1.9375 9.97917 2.10938 10.1875C2.28646 10.3906 2.50521 10.5391 2.76562 10.6328C3.03125 10.7214 3.30469 10.7656 3.58594 10.7656C3.92448 10.7656 4.20833 10.7214 4.4375 10.6328C4.66667 10.5391 4.84115 10.4141 4.96094 10.2578C5.08073 10.0964 5.14062 9.91406 5.14062 9.71094ZM12.5078 3.54688V4.92188H7.74219V3.54688H12.5078ZM9.11719 1.47656H11V9.66406C11 9.92448 11.0365 10.125 11.1094 10.2656C11.1875 10.401 11.2943 10.4922 11.4297 10.5391C11.5651 10.5859 11.724 10.6094 11.9062 10.6094C12.0365 10.6094 12.1615 10.6016 12.2812 10.5859C12.401 10.5703 12.4974 10.5547 12.5703 10.5391L12.5781 11.9766C12.4219 12.0234 12.2396 12.0651 12.0312 12.1016C11.8281 12.138 11.5938 12.1562 11.3281 12.1562C10.8958 12.1562 10.513 12.0807 10.1797 11.9297C9.84635 11.7734 9.58594 11.5208 9.39844 11.1719C9.21094 10.8229 9.11719 10.3594 9.11719 9.78125V1.47656ZM15.8516 5.15625V12H13.9688V3.54688H15.7656L15.8516 5.15625ZM18.4375 3.49219L18.4219 5.24219C18.3073 5.22135 18.1823 5.20573 18.0469 5.19531C17.9167 5.1849 17.7865 5.17969 17.6562 5.17969C17.3333 5.17969 17.0495 5.22656 16.8047 5.32031C16.5599 5.40885 16.3542 5.53906 16.1875 5.71094C16.026 5.8776 15.901 6.08073 15.8125 6.32031C15.724 6.5599 15.6719 6.82812 15.6562 7.125L15.2266 7.15625C15.2266 6.625 15.2786 6.13281 15.3828 5.67969C15.487 5.22656 15.6432 4.82812 15.8516 4.48438C16.0651 4.14062 16.3307 3.8724 16.6484 3.67969C16.9714 3.48698 17.3438 3.39062 17.7656 3.39062C17.8802 3.39062 18.0026 3.40104 18.1328 3.42188C18.2682 3.44271 18.3698 3.46615 18.4375 3.49219ZM24.7031 10.0078V3.54688H26.5938V12H24.8125L24.7031 10.0078ZM24.9688 8.25L25.6016 8.23438C25.6016 8.80208 25.5391 9.32552 25.4141 9.80469C25.2891 10.2786 25.0964 10.6927 24.8359 11.0469C24.5755 11.3958 24.2422 11.6693 23.8359 11.8672C23.4297 12.0599 22.9427 12.1562 22.375 12.1562C21.9635 12.1562 21.5859 12.0964 21.2422 11.9766C20.8984 11.8568 20.6016 11.6719 20.3516 11.4219C20.1068 11.1719 19.9167 10.8464 19.7812 10.4453C19.6458 10.0443 19.5781 9.5651 19.5781 9.00781V3.54688H21.4609V9.02344C21.4609 9.33073 21.4974 9.58854 21.5703 9.79688C21.6432 10 21.7422 10.1641 21.8672 10.2891C21.9922 10.4141 22.138 10.5026 22.3047 10.5547C22.4714 10.6068 22.6484 10.6328 22.8359 10.6328C23.3724 10.6328 23.7943 10.5286 24.1016 10.3203C24.4141 10.1068 24.6354 9.82031 24.7656 9.46094C24.901 9.10156 24.9688 8.69792 24.9688 8.25ZM33.6797 10.25V0H35.5703V12H33.8594L33.6797 10.25ZM28.1797 7.86719V7.70312C28.1797 7.0625 28.2552 6.47917 28.4062 5.95312C28.5573 5.42188 28.776 4.96615 29.0625 4.58594C29.349 4.20052 29.6979 3.90625 30.1094 3.70312C30.5208 3.49479 30.9844 3.39062 31.5 3.39062C32.0104 3.39062 32.4583 3.48958 32.8438 3.6875C33.2292 3.88542 33.5573 4.16927 33.8281 4.53906C34.099 4.90365 34.3151 5.34115 34.4766 5.85156C34.638 6.35677 34.7526 6.91927 34.8203 7.53906V8.0625C34.7526 8.66667 34.638 9.21875 34.4766 9.71875C34.3151 10.2188 34.099 10.651 33.8281 11.0156C33.5573 11.3802 33.2266 11.6615 32.8359 11.8594C32.4505 12.0573 32 12.1562 31.4844 12.1562C30.974 12.1562 30.513 12.0495 30.1016 11.8359C29.6953 11.6224 29.349 11.3229 29.0625 10.9375C28.776 10.5521 28.5573 10.099 28.4062 9.57812C28.2552 9.05208 28.1797 8.48177 28.1797 7.86719ZM30.0625 7.70312V7.86719C30.0625 8.2526 30.0964 8.61198 30.1641 8.94531C30.237 9.27865 30.349 9.57292 30.5 9.82812C30.651 10.0781 30.8464 10.276 31.0859 10.4219C31.3307 10.5625 31.6224 10.6328 31.9609 10.6328C32.388 10.6328 32.7396 10.5391 33.0156 10.3516C33.2917 10.1641 33.5078 9.91146 33.6641 9.59375C33.8255 9.27083 33.9349 8.91146 33.9922 8.51562V7.10156C33.9609 6.79427 33.8958 6.50781 33.7969 6.24219C33.7031 5.97656 33.5755 5.74479 33.4141 5.54688C33.2526 5.34375 33.0521 5.1875 32.8125 5.07812C32.5781 4.96354 32.2995 4.90625 31.9766 4.90625C31.6328 4.90625 31.3411 4.97917 31.1016 5.125C30.862 5.27083 30.6641 5.47135 30.5078 5.72656C30.3568 5.98177 30.2448 6.27865 30.1719 6.61719C30.099 6.95573 30.0625 7.31771 30.0625 7.70312ZM41.2656 12.1562C40.6406 12.1562 40.0755 12.0547 39.5703 11.8516C39.0703 11.6432 38.6432 11.3542 38.2891 10.9844C37.9401 10.6146 37.6719 10.1797 37.4844 9.67969C37.2969 9.17969 37.2031 8.64062 37.2031 8.0625V7.75C37.2031 7.08854 37.2995 6.48958 37.4922 5.95312C37.6849 5.41667 37.9531 4.95833 38.2969 4.57812C38.6406 4.19271 39.0469 3.89844 39.5156 3.69531C39.9844 3.49219 40.4922 3.39062 41.0391 3.39062C41.6432 3.39062 42.1719 3.49219 42.625 3.69531C43.0781 3.89844 43.4531 4.1849 43.75 4.55469C44.0521 4.91927 44.276 5.35417 44.4219 5.85938C44.5729 6.36458 44.6484 6.92188 44.6484 7.53125V8.33594H38.1172V6.98438H42.7891V6.83594C42.7786 6.4974 42.7109 6.17969 42.5859 5.88281C42.4661 5.58594 42.2812 5.34635 42.0312 5.16406C41.7812 4.98177 41.4479 4.89062 41.0312 4.89062C40.7188 4.89062 40.4401 4.95833 40.1953 5.09375C39.9557 5.22396 39.7552 5.41406 39.5938 5.66406C39.4323 5.91406 39.3073 6.21615 39.2188 6.57031C39.1354 6.91927 39.0938 7.3125 39.0938 7.75V8.0625C39.0938 8.43229 39.1432 8.77604 39.2422 9.09375C39.3464 9.40625 39.4974 9.67969 39.6953 9.91406C39.8932 10.1484 40.1328 10.3333 40.4141 10.4688C40.6953 10.599 41.0156 10.6641 41.375 10.6641C41.8281 10.6641 42.2318 10.5729 42.5859 10.3906C42.9401 10.2083 43.2474 9.95052 43.5078 9.61719L44.5 10.5781C44.3177 10.8438 44.0807 11.099 43.7891 11.3438C43.4974 11.5833 43.1406 11.7786 42.7188 11.9297C42.3021 12.0807 41.8177 12.1562 41.2656 12.1562ZM48.1328 0V12H46.2422V0H48.1328ZM62.8438 7.9375C62.8229 8.44271 62.7474 8.94531 62.6172 9.44531C62.487 9.94531 62.2891 10.401 62.0234 10.8125C61.763 11.224 61.4271 11.5521 61.0156 11.7969C60.6042 12.0417 60.1094 12.1641 59.5312 12.1641C59.1823 12.1641 58.8724 12.1042 58.6016 11.9844C58.3307 11.8594 58.1042 11.6823 57.9219 11.4531C57.7448 11.224 57.6172 10.9479 57.5391 10.625C57.4609 10.2969 57.4401 9.93229 57.4766 9.53125L57.875 5.10156H59.2422L58.8516 9.53125C58.8203 9.84896 58.8255 10.1094 58.8672 10.3125C58.9141 10.5156 58.9844 10.6719 59.0781 10.7812C59.1719 10.8906 59.2786 10.9661 59.3984 11.0078C59.5182 11.0495 59.638 11.0703 59.7578 11.0703C60.0391 11.0703 60.2917 10.9922 60.5156 10.8359C60.7396 10.6745 60.9297 10.4531 61.0859 10.1719C61.2474 9.88542 61.3724 9.55469 61.4609 9.17969C61.5547 8.80469 61.6094 8.39844 61.625 7.96094C61.6615 7.23177 61.6276 6.5599 61.5234 5.94531C61.4193 5.32552 61.2422 4.77344 60.9922 4.28906C60.7474 3.80469 60.4271 3.39583 60.0312 3.0625C59.6406 2.72396 59.1719 2.46615 58.625 2.28906C58.0781 2.11198 57.4531 2.02344 56.75 2.02344C56.1042 2.02344 55.5078 2.1224 54.9609 2.32031C54.4141 2.51823 53.9245 2.80469 53.4922 3.17969C53.0599 3.54948 52.6875 3.99479 52.375 4.51562C52.0677 5.03125 51.8255 5.61198 51.6484 6.25781C51.4766 6.89844 51.375 7.58594 51.3438 8.32031C51.3073 9.09115 51.3464 9.79427 51.4609 10.4297C51.5807 11.0651 51.7734 11.6276 52.0391 12.1172C52.3047 12.6068 52.638 13.0182 53.0391 13.3516C53.4453 13.6901 53.9141 13.9453 54.4453 14.1172C54.9818 14.2891 55.5755 14.375 56.2266 14.375C56.6849 14.375 57.1484 14.3229 57.6172 14.2188C58.0911 14.1146 58.4896 13.9766 58.8125 13.8047L59.1094 14.8438C58.7448 15.0781 58.2891 15.2526 57.7422 15.3672C57.1953 15.4818 56.6797 15.5391 56.1953 15.5391C55.388 15.5391 54.6484 15.4349 53.9766 15.2266C53.3099 15.0182 52.7188 14.7109 52.2031 14.3047C51.6927 13.9036 51.2682 13.4115 50.9297 12.8281C50.5911 12.2448 50.3411 11.5755 50.1797 10.8203C50.0182 10.0651 49.9557 9.23177 49.9922 8.32031C50.0286 7.46615 50.1589 6.66406 50.3828 5.91406C50.6068 5.15885 50.9141 4.47396 51.3047 3.85938C51.7005 3.24479 52.1693 2.71615 52.7109 2.27344C53.2578 1.82552 53.8724 1.48177 54.5547 1.24219C55.237 1.0026 55.9792 0.882812 56.7812 0.882812C57.5938 0.882812 58.3281 0.989583 58.9844 1.20312C59.6406 1.41667 60.2161 1.72656 60.7109 2.13281C61.2109 2.53906 61.625 3.03125 61.9531 3.60938C62.2812 4.1875 62.5208 4.84115 62.6719 5.57031C62.8229 6.29427 62.8802 7.08333 62.8438 7.9375ZM54.8984 8.67969C54.862 9.03385 54.8594 9.34896 54.8906 9.625C54.9271 9.90104 54.9922 10.1328 55.0859 10.3203C55.1849 10.5078 55.3125 10.651 55.4688 10.75C55.625 10.849 55.8073 10.8984 56.0156 10.8984C56.1458 10.8984 56.2839 10.8672 56.4297 10.8047C56.5807 10.737 56.7292 10.6302 56.875 10.4844C57.0208 10.3385 57.1589 10.1458 57.2891 9.90625C57.4193 9.66146 57.5286 9.35938 57.6172 9L58.2109 9.67969C58.0911 10.0859 57.9401 10.4453 57.7578 10.7578C57.5755 11.0651 57.3698 11.3229 57.1406 11.5312C56.9115 11.7344 56.6641 11.8906 56.3984 12C56.1328 12.1042 55.8568 12.1562 55.5703 12.1562C55.1901 12.1562 54.8516 12.0729 54.5547 11.9062C54.263 11.7396 54.0234 11.5052 53.8359 11.2031C53.6484 10.8958 53.5156 10.5312 53.4375 10.1094C53.3594 9.68229 53.3438 9.20573 53.3906 8.67969C53.4427 8.14323 53.5417 7.64583 53.6875 7.1875C53.8385 6.72917 54.0234 6.32031 54.2422 5.96094C54.4661 5.60156 54.7188 5.29688 55 5.04688C55.2812 4.79167 55.5833 4.59896 55.9062 4.46875C56.2344 4.33333 56.5703 4.26562 56.9141 4.26562C57.5026 4.26562 57.9635 4.34896 58.2969 4.51562C58.6302 4.68229 58.9453 4.8776 59.2422 5.10156L58.5078 6.03906C58.3568 5.89844 58.1589 5.76562 57.9141 5.64062C57.6745 5.51562 57.388 5.45312 57.0547 5.45312C56.7578 5.45312 56.487 5.52083 56.2422 5.65625C56.0026 5.79167 55.7917 5.9974 55.6094 6.27344C55.4271 6.54427 55.2734 6.88021 55.1484 7.28125C55.0286 7.68229 54.9453 8.14844 54.8984 8.67969ZM66.5703 0V12H64.6797V0H66.5703ZM68.6406 0H70.5234V10.1953L70.3438 12H68.6406V0ZM76.0391 7.69531V7.85938C76.0391 8.48438 75.9688 9.0599 75.8281 9.58594C75.6927 10.1068 75.4844 10.5599 75.2031 10.9453C74.9271 11.3307 74.5833 11.6302 74.1719 11.8438C73.7656 12.0521 73.2943 12.1562 72.7578 12.1562C72.2318 12.1562 71.7734 12.0573 71.3828 11.8594C70.9922 11.6615 70.6641 11.3802 70.3984 11.0156C70.138 10.651 69.9271 10.2161 69.7656 9.71094C69.6042 9.20573 69.4896 8.64844 69.4219 8.03906V7.51562C69.4896 6.90104 69.6042 6.34375 69.7656 5.84375C69.9271 5.33854 70.138 4.90365 70.3984 4.53906C70.6641 4.16927 70.9896 3.88542 71.375 3.6875C71.7656 3.48958 72.2214 3.39062 72.7422 3.39062C73.2839 3.39062 73.7604 3.49479 74.1719 3.70312C74.5885 3.91146 74.9349 4.20833 75.2109 4.59375C75.487 4.97396 75.6927 5.42708 75.8281 5.95312C75.9688 6.47917 76.0391 7.0599 76.0391 7.69531ZM74.1562 7.85938V7.69531C74.1562 7.3151 74.125 6.95833 74.0625 6.625C74 6.28646 73.8958 5.98958 73.75 5.73438C73.6094 5.47917 73.4167 5.27865 73.1719 5.13281C72.9323 4.98177 72.6328 4.90625 72.2734 4.90625C71.9401 4.90625 71.6536 4.96354 71.4141 5.07812C71.1745 5.19271 70.974 5.34896 70.8125 5.54688C70.651 5.74479 70.5234 5.97396 70.4297 6.23438C70.3411 6.49479 70.2812 6.77604 70.25 7.07812V8.49219C70.2969 8.88281 70.3958 9.24219 70.5469 9.57031C70.7031 9.89323 70.9219 10.1536 71.2031 10.3516C71.4844 10.5443 71.8464 10.6406 72.2891 10.6406C72.638 10.6406 72.9323 10.5703 73.1719 10.4297C73.4115 10.2891 73.6016 10.0938 73.7422 9.84375C73.888 9.58854 73.9922 9.29167 74.0547 8.95312C74.1224 8.61458 74.1562 8.25 74.1562 7.85938ZM79.6484 0V12H77.7578V0H79.6484ZM81.7891 11.0625C81.7891 10.7708 81.888 10.526 82.0859 10.3281C82.2839 10.125 82.5521 10.0234 82.8906 10.0234C83.2344 10.0234 83.5026 10.125 83.6953 10.3281C83.8932 10.526 83.9922 10.7708 83.9922 11.0625C83.9922 11.3542 83.8932 11.599 83.6953 11.7969C83.5026 11.9948 83.2344 12.0938 82.8906 12.0938C82.5521 12.0938 82.2839 11.9948 82.0859 11.7969C81.888 11.599 81.7891 11.3542 81.7891 11.0625ZM91.5781 3.54688H93.2891V11.7656C93.2891 12.526 93.1276 13.1719 92.8047 13.7031C92.4818 14.2344 92.0312 14.638 91.4531 14.9141C90.875 15.1953 90.2057 15.3359 89.4453 15.3359C89.1224 15.3359 88.763 15.2891 88.3672 15.1953C87.9766 15.1016 87.5964 14.9505 87.2266 14.7422C86.862 14.5391 86.5573 14.2708 86.3125 13.9375L87.1953 12.8281C87.4974 13.1875 87.8307 13.4505 88.1953 13.6172C88.5599 13.7839 88.9427 13.8672 89.3438 13.8672C89.776 13.8672 90.1432 13.7865 90.4453 13.625C90.7526 13.4688 90.9896 13.237 91.1562 12.9297C91.3229 12.6224 91.4062 12.2474 91.4062 11.8047V5.46094L91.5781 3.54688ZM85.8359 7.86719V7.70312C85.8359 7.0625 85.9141 6.47917 86.0703 5.95312C86.2266 5.42188 86.4505 4.96615 86.7422 4.58594C87.0339 4.20052 87.388 3.90625 87.8047 3.70312C88.2214 3.49479 88.6927 3.39062 89.2188 3.39062C89.7656 3.39062 90.2318 3.48958 90.6172 3.6875C91.0078 3.88542 91.3333 4.16927 91.5938 4.53906C91.8542 4.90365 92.0573 5.34115 92.2031 5.85156C92.3542 6.35677 92.4661 6.91927 92.5391 7.53906V8.0625C92.4714 8.66667 92.3568 9.21875 92.1953 9.71875C92.0339 10.2188 91.8203 10.651 91.5547 11.0156C91.2891 11.3802 90.9609 11.6615 90.5703 11.8594C90.1849 12.0573 89.7292 12.1562 89.2031 12.1562C88.6875 12.1562 88.2214 12.0495 87.8047 11.8359C87.3932 11.6224 87.0391 11.3229 86.7422 10.9375C86.4505 10.5521 86.2266 10.099 86.0703 9.57812C85.9141 9.05208 85.8359 8.48177 85.8359 7.86719ZM87.7188 7.70312V7.86719C87.7188 8.2526 87.7552 8.61198 87.8281 8.94531C87.9062 9.27865 88.0234 9.57292 88.1797 9.82812C88.3411 10.0781 88.5443 10.276 88.7891 10.4219C89.0391 10.5625 89.3333 10.6328 89.6719 10.6328C90.1146 10.6328 90.4766 10.5391 90.7578 10.3516C91.0443 10.1641 91.263 9.91146 91.4141 9.59375C91.5703 9.27083 91.6797 8.91146 91.7422 8.51562V7.10156C91.7109 6.79427 91.6458 6.50781 91.5469 6.24219C91.4531 5.97656 91.3255 5.74479 91.1641 5.54688C91.0026 5.34375 90.7995 5.1875 90.5547 5.07812C90.3099 4.96354 90.0208 4.90625 89.6875 4.90625C89.349 4.90625 89.0547 4.97917 88.8047 5.125C88.5547 5.27083 88.349 5.47135 88.1875 5.72656C88.0312 5.98177 87.9141 6.27865 87.8359 6.61719C87.7578 6.95573 87.7188 7.31771 87.7188 7.70312ZM94.8828 7.86719V7.6875C94.8828 7.07812 94.9714 6.51302 95.1484 5.99219C95.3255 5.46615 95.5807 5.01042 95.9141 4.625C96.2526 4.23438 96.6641 3.93229 97.1484 3.71875C97.638 3.5 98.1901 3.39062 98.8047 3.39062C99.4245 3.39062 99.9766 3.5 100.461 3.71875C100.951 3.93229 101.365 4.23438 101.703 4.625C102.042 5.01042 102.299 5.46615 102.477 5.99219C102.654 6.51302 102.742 7.07812 102.742 7.6875V7.86719C102.742 8.47656 102.654 9.04167 102.477 9.5625C102.299 10.0833 102.042 10.5391 101.703 10.9297C101.365 11.3151 100.953 11.6172 100.469 11.8359C99.9844 12.0495 99.4349 12.1562 98.8203 12.1562C98.2005 12.1562 97.6458 12.0495 97.1562 11.8359C96.6719 11.6172 96.2604 11.3151 95.9219 10.9297C95.5833 10.5391 95.3255 10.0833 95.1484 9.5625C94.9714 9.04167 94.8828 8.47656 94.8828 7.86719ZM96.7656 7.6875V7.86719C96.7656 8.2474 96.8047 8.60677 96.8828 8.94531C96.9609 9.28385 97.0833 9.58073 97.25 9.83594C97.4167 10.0911 97.6302 10.2917 97.8906 10.4375C98.151 10.5833 98.4609 10.6562 98.8203 10.6562C99.1693 10.6562 99.4714 10.5833 99.7266 10.4375C99.987 10.2917 100.201 10.0911 100.367 9.83594C100.534 9.58073 100.656 9.28385 100.734 8.94531C100.818 8.60677 100.859 8.2474 100.859 7.86719V7.6875C100.859 7.3125 100.818 6.95833 100.734 6.625C100.656 6.28646 100.531 5.98698 100.359 5.72656C100.193 5.46615 99.9792 5.26302 99.7188 5.11719C99.4635 4.96615 99.1589 4.89062 98.8047 4.89062C98.4505 4.89062 98.1432 4.96615 97.8828 5.11719C97.6276 5.26302 97.4167 5.46615 97.25 5.72656C97.0833 5.98698 96.9609 6.28646 96.8828 6.625C96.8047 6.95833 96.7656 7.3125 96.7656 7.6875ZM106.945 10.5078L109.016 3.54688H110.969L108.031 12H106.812L106.945 10.5078ZM105.359 3.54688L107.469 10.5391L107.57 12H106.352L103.398 3.54688H105.359Z" fill="black"/>
</svg>
